<svg width="31" height="31" viewBox="0 0 31 31" fill="none" xmlns="http://www.w3.org/2000/svg">
<path d="M11.75 13C13.1307 13 14.25 11.8807 14.25 10.5C14.25 9.11929 13.1307 8 11.75 8C10.3693 8 9.25 9.11929 9.25 10.5C9.25 11.8807 10.3693 13 11.75 13Z" stroke="#14121A" stroke-width="1.5" stroke-linecap="round" stroke-linejoin="round"/>
<path d="M16.75 3H11.75C5.5 3 3 5.5 3 11.75V19.25C3 25.5 5.5 28 11.75 28H19.25C25.5 28 28 25.5 28 19.25V13" stroke="#14121A" stroke-width="1.5" stroke-linecap="round" stroke-linejoin="round"/>
<path d="M20.1875 6.75H27.0625" stroke="#14121A" stroke-width="1.5" stroke-linecap="round"/>
<path d="M23.625 10.1875V3.3125" stroke="#14121A" stroke-width="1.5" stroke-linecap="round"/>
<path d="M3.83752 24.1875L10 20.05C10.9875 19.3875 12.4125 19.4625 13.3 20.225L13.7125 20.5875C14.6875 21.425 16.2625 21.425 17.2375 20.5875L22.4375 16.125C23.4125 15.2875 24.9875 15.2875 25.9625 16.125L28 17.875" stroke="#14121A" stroke-width="1.5" stroke-linecap="round" stroke-linejoin="round"/>
</svg>
